#!OML:ASF I:\Actors\actors\Patient Classification 2\Patient 1\Session 1\actor1.ASF
:FULLY-SPECIFIED
:DEGREES
513
root -0.440277 18.9446 5.11313 8.27031 -0.336418 -2.09327
lowerback 24.213 0.0524902 0.790331
upperback 8.27998 0.292506 0.812995
thorax -4.35946 0.136234 0.347779
lowerneck -21.5652 -1.3232 -0.8659
upperneck 22.1175 -2.16213 2.29177
head 10.7273 -0.76622 0.638553
rclavicle -1.05604e-015 3.04389e-015
rhumerus -54.8454 53.084 -127.724
rradius 116.614
rwrist -8.66115
rhand 0.265164 -25.1243
rfingers 7.12502
rthumb 25.8443 -53.3883
lclavicle -1.05604e-015 3.04389e-015
lhumerus -9.67113 -60.7698 101.842
lradius 132.45
lwrist 10.3004
lhand -25.8284 290.209
lfingers 7.12502
lthumb 0.711435 -39.8121
rfemur -2.90993 1.06256 15.2292
rtibia 2.38542e-015
rfoot -14.9297 -15.7404
rtoes -3.8233
lfemur -18.2463 0.60317 -12.2469
ltibia 25.2447
lfoot -14.3456 6.36491
ltoes -56.3726
514
root -0.431668 18.9477 5.13117 8.26589 -0.434345 -2.05795
lowerback 24.2832 0.0825332 0.671857
upperback 8.19395 0.303872 0.788959
thorax -4.48894 0.140487 0.386364
lowerneck -21.5134 -1.26691 -0.894083
upperneck 22.2674 -2.07351 2.27435
head 10.7712 -0.729913 0.651189
rclavicle 3.32964e-015 -1.61513e-015
rhumerus -54.8454 53.084 -127.724
rradius 116.614
rwrist -8.66115
rhand 0.265164 -25.1243
rfingers 7.12502
rthumb 25.8443 -53.3883
lclavicle 3.32964e-015 -1.61513e-015
lhumerus -9.67113 -60.7698 101.842
lradius 132.45
lwrist 10.3004
lhand -25.8284 290.209
lfingers 7.12502
lthumb 0.711435 -39.8121
rfemur -2.85574 1.15291 15.1602
rtibia 7.95139e-015
rfoot -14.9026 -15.801
rtoes -4.59312
lfemur -18.1719 0.754448 -12.3129
ltibia 25.293
lfoot -14.3543 6.1754
ltoes -56.2475
515
root -0.423415 18.9447 5.1457 8.22132 -0.480052 -1.98665
lowerback 24.2323 0.0774416 0.543973
upperback 8.23009 0.26553 0.763568
thorax -4.42471 0.121095 0.442501
lowerneck -21.5194 -1.21417 -0.899595
upperneck 22.3134 -1.98195 2.20966
head 10.7867 -0.696755 0.642952
rclavicle -3.72721e-015 -4.42296e-015
rhumerus -54.8454 53.084 -127.724
rradius 116.614
rwrist -8.66115
rhand 0.265164 -25.1243
rfingers 7.12502
rthumb 25.8443 -53.3883
lclavicle -3.72721e-015 -4.42296e-015
lhumerus -9.67113 -60.7698 101.842
lradius 132.45
lwrist 10.3004
lhand -25.8284 290.209
lfingers 7.12502
lthumb 0.711435 -39.8121
rfemur -2.74747 1.18929 15.0551
rtibia 1.03368e-014
rfoot -14.9294 -15.7579
rtoes -5.11794
lfemur -18.0962 0.776189 -12.4186
ltibia 25.3744
lfoot -14.4519 6.10455
ltoes -56.2277
516
root -0.414523 18.9356 5.15939 8.12288 -0.470311 -1.94224
lowerback 24.2396 0.0532282 0.434337
upperback 8.25375 0.210829 0.78201
thorax -4.4027 0.0933276 0.540006
lowerneck -21.5232 -1.17764 -0.969397
upperneck 22.3518 -1.89155 2.14707
head 10.7998 -0.669546 0.645973
rclavicle -8.69683e-016 -1.49089e-015
rhumerus -54.8454 53.084 -127.724
rradius 116.614
rwrist -8.66115
rhand 0.265164 -25.1243
rfingers 7.12502
rthumb 25.8443 -53.3883
lclavicle -8.69683e-016 -1.49089e-015
lhumerus -9.67113 -60.7698 101.842
lradius 132.45
lwrist 10.3004
lhand -25.8284 290.209
lfingers 7.12502
lthumb 0.711435 -39.8121
rfemur -2.5719 1.17928 14.9803
rtibia 7.95139e-016
rfoot -15.0833 -15.5965
rtoes -4.82468
lfemur -17.998 0.800159 -12.513
ltibia 25.48
lfoot -14.5792 6.05511
ltoes -56.3899
517
root -0.406154 18.9234 5.17083 7.9839 -0.425228 -1.91253
lowerback 24.191 0.0290906 0.383843
upperback 8.34142 0.168395 0.795204
thorax -4.28269 0.0721139 0.594518
lowerneck -21.5257 -1.18051 -1.04383
upperneck 22.2752 -1.8498 2.07702
head 10.771 -0.666438 0.639234
rclavicle -3.67752e-015 -3.90115e-015
rhumerus -54.8454 53.084 -127.724
rradius 116.614
rwrist -8.66115
rhand 0.265164 -25.1243
rfingers 7.12502
rthumb 25.8443 -53.3883
lclavicle -3.67752e-015 -3.90115e-015
lhumerus -9.67113 -60.7698 101.842
lradius 132.45
lwrist 10.3004
lhand -25.8284 290.209
lfingers 7.12502
lthumb 0.711435 -39.8121
rfemur -2.36524 1.14133 14.9377
rtibia 7.95139e-016
rfoot -15.2166 -15.4893
rtoes -4.94864
lfemur -17.8836 0.776295 -12.5888
ltibia 25.6051
lfoot -14.7656 6.05521
ltoes -56.5141
518
root -0.397469 18.9115 5.17754 7.86986 -0.299957 -1.8716
lowerback 24.2791 -0.0272124 0.465287
upperback 8.33084 0.112882 0.738377
thorax -4.337 0.0469657 0.501718
lowerneck -21.5062 -1.19665 -0.946027
upperneck 22.2134 -1.86291 1.92342
head 10.742 -0.683852 0.565423
rclavicle 4.29872e-015 2.23633e-015
rhumerus -54.8454 53.084 -127.724
rradius 116.614
rwrist -8.66115
rhand 0.265164 -25.1243
rfingers 7.12502
rthumb 25.8443 -53.3883
lclavicle 4.29872e-015 2.23633e-015
lhumerus -9.67113 -60.7698 101.842
lradius 132.45
lwrist 10.3004
lhand -25.8284 290.209
lfingers 7.12502
lthumb 0.711435 -39.8121
rfemur -2.1933 1.02031 14.8909
rtibia -5.56597e-015
rfoot -15.3298 -15.4203
rtoes -4.99471
lfemur -17.8459 0.723088 -12.6723
ltibia 25.7417
lfoot -14.9138 6.02156
ltoes -56.5763
519
root -0.388227 18.9055 5.1815 7.82606 -0.139066 -1.83065
lowerback 24.3087 -0.0931265 0.589708
upperback 8.31013 0.0534419 0.661726
thorax -4.3737 0.020647 0.363925
lowerneck -21.538 -1.19831 -0.785048
upperneck 22.1477 -1.89137 1.82372
head 10.7215 -0.695677 0.498122
rclavicle 3.926e-015 4.67144e-015
rhumerus -54.8454 53.084 -127.724
rradius 116.614
rwrist -8.66115
rhand 0.265164 -25.1243
rfingers 7.12502
rthumb 25.8443 -53.3883
lclavicle 3.926e-015 4.67144e-015
lhumerus -9.67113 -60.7698 101.842
lradius 132.45
lwrist 10.3004
lhand -25.8284 290.209
lfingers 7.12502
lthumb 0.711435 -39.8121
rfemur -2.10091 0.856673 14.8319
rtibia 3.97569e-015
rfoot -15.3708 -15.3774
rtoes -4.87435
lfemur -17.8905 0.654132 -12.7483
ltibia 25.8563
lfoot -14.9479 5.95079
ltoes -56.6221
520
root -0.380458 18.9066 5.18352 7.86107 -0.0494067 -1.77367
lowerback 24.221 -0.122765 0.659895
upperback 8.31063 0.0262338 0.584744
thorax -4.32963 0.00944385 0.247752
lowerneck -21.5451 -1.18788 -0.717259
upperneck 22.0298 -1.91331 1.88438
head 10.68 -0.692897 0.505136
rclavicle -5.96354e-016 2.48481e-015
rhumerus -54.8454 53.084 -127.724
rradius 116.614
rwrist -8.66115
rhand 0.265164 -25.1243
rfingers 7.12502
rthumb 25.8443 -53.3883
lclavicle -5.96354e-016 2.48481e-015
lhumerus -9.67113 -60.7698 101.842
lradius 132.45
lwrist 10.3004
lhand -25.8284 290.209
lfingers 7.12502
lthumb 0.711435 -39.8121
rfemur -2.12765 0.753194 14.7388
rtibia 0
rfoot -15.253 -15.4121
rtoes -4.9049
lfemur -17.9835 0.68885 -12.829
ltibia 25.9273
lfoot -14.8473 5.8034
ltoes -56.5788
521
root -0.37474 18.9122 5.18466 7.91444 -0.0312842 -1.71582
lowerback 24.2349 -0.140303 0.655011
upperback 8.25241 0.000119472 0.531245
thorax -4.40024 -0.00268502 0.199906
lowerneck -21.5439 -1.15182 -0.789869
upperneck 22.0263 -1.88871 2.07298
head 10.6811 -0.664222 0.588861
rclavicle 2.43511e-015 -2.13694e-015
rhumerus -54.8454 53.084 -127.724
rradius 116.614
rwrist -8.66115
rhand 0.265164 -25.1243
rfingers 7.12502
rthumb 25.8443 -53.3883
lclavicle 2.43511e-015 -2.13694e-015
lhumerus -9.67113 -60.7698 101.842
lradius 132.45
lwrist 10.3004
lhand -25.8284 290.209
lfingers 7.12502
lthumb 0.711435 -39.8121
rfemur -2.1882 0.718406 14.6364
rtibia 3.97569e-015
rfoot -15.0643 -15.4976
rtoes -5.01437
lfemur -18.0659 0.829328 -12.8968
ltibia 25.9602
lfoot -14.6429 5.56835
ltoes -56.5948
522
root -0.370345 18.9204 5.18653 7.9313 -0.041759 -1.71986
lowerback 24.124 -0.120796 0.558213
upperback 8.34103 0.00571806 0.600877
thorax -4.24862 -0.00155435 0.328565
lowerneck -21.6249 -1.13617 -0.959928
upperneck 22.0009 -1.83986 2.19051
head 10.6891 -0.641398 0.666624
rclavicle 8.94531e-016 1.2921e-015
rhumerus -54.8454 53.084 -127.724
rradius 116.614
rwrist -8.66115
rhand 0.265164 -25.1243
rfingers 7.12502
rthumb 25.8443 -53.3883
lclavicle 8.94531e-016 1.2921e-015
lhumerus -9.67113 -60.7698 101.842
lradius 132.45
lwrist 10.3004
lhand -25.8284 290.209
lfingers 7.12502
lthumb 0.711435 -39.8121
rfemur -2.20108 0.724675 14.6028
rtibia -1.59028e-014
rfoot -14.9288 -15.5842
rtoes -5.09825
lfemur -18.083 0.903984 -12.8728
ltibia 25.9632
lfoot -14.4442 5.38229
ltoes -56.7142
523
root -0.367033 18.9294 5.18991 7.88532 -0.0570748 -1.76976
lowerback 24.1709 -0.0785441 0.536116
upperback 8.39393 0.0588232 0.66728
thorax -4.21413 0.0231465 0.398655
lowerneck -21.6497 -1.14181 -0.981661
upperneck 21.996 -1.82095 2.11878
head 10.6909 -0.64354 0.647213
rclavicle -4.22417e-016 -3.13086e-015
rhumerus -54.8454 53.084 -127.724
rradius 116.614
rwrist -8.66115
rhand 0.265164 -25.1243
rfingers 7.12502
rthumb 25.8443 -53.3883
lclavicle -4.22417e-016 -3.13086e-015
lhumerus -9.67113 -60.7698 101.842
lradius 132.45
lwrist 10.3004
lhand -25.8284 290.209
lfingers 7.12502
lthumb 0.711435 -39.8121
rfemur -2.15133 0.748252 14.6185
rtibia 3.97569e-015
rfoot -14.8199 -15.6201
rtoes -4.97579
lfemur -18.0103 0.92109 -12.7778
ltibia 25.9418
lfoot -14.2826 5.21305
ltoes -56.8325
524
root -0.364778 18.9364 5.1961 7.77352 -0.0753903 -1.80017
lowerback 24.3066 -0.0418804 0.485055
upperback 8.42711 0.098284 0.718848
thorax -4.24506 0.0409982 0.473159
lowerneck -21.5775 -1.10081 -0.884535
upperneck 21.9562 -1.75026 1.94609
head 10.6586 -0.625634 0.579824
rclavicle 2.31087e-015 -4.47266e-016
rhumerus -54.8454 53.084 -127.724
rradius 116.614
rwrist -8.66115
rhand 0.265164 -25.1243
rfingers 7.12502
rthumb 25.8443 -53.3883
lclavicle 2.31087e-015 -4.47266e-016
lhumerus -9.67113 -60.7698 101.842
lradius 132.45
lwrist 10.3004
lhand -25.8284 290.209
lfingers 7.12502
lthumb 0.711435 -39.8121
rfemur -2.01892 0.77788 14.6085
rtibia -3.97569e-015
rfoot -14.6629 -15.5776
rtoes -4.99501
lfemur -17.8415 0.885501 -12.698
ltibia 25.9161
lfoot -14.1944 5.05338
ltoes -56.8701
